<svg viewBox="0 0 360 240" xmlns="http://www.w3.org/2000/svg" width="360" height="240" style="color:#24292f">
<title>The 1 m dartboard drawn to scale: the disc of radius 0.5 m, the 32 grid squares of side 1/8 m lying inside it, and the vertical slice at x = 0.2 running from y = 0.1 to y = 0.9</title><rect x="0" y="0" width="360" height="240" rx="8" fill="#ffffff"/>
<rect x="70" y="20" width="180" height="180" fill="none" stroke="currentColor" stroke-width="1.5"/>
<rect x="92.5" y="65" width="22.5" height="90" fill="currentColor" fill-opacity="0.12" stroke="currentColor" stroke-width="1.5"/>
<rect x="115" y="42.5" width="22.5" height="135" fill="currentColor" fill-opacity="0.12" stroke="currentColor" stroke-width="1.5"/>
<rect x="137.5" y="42.5" width="22.5" height="135" fill="currentColor" fill-opacity="0.12" stroke="currentColor" stroke-width="1.5"/>
<rect x="160" y="42.5" width="22.5" height="135" fill="currentColor" fill-opacity="0.12" stroke="currentColor" stroke-width="1.5"/>
<rect x="182.5" y="42.5" width="22.5" height="135" fill="currentColor" fill-opacity="0.12" stroke="currentColor" stroke-width="1.5"/>
<rect x="205" y="65" width="22.5" height="90" fill="currentColor" fill-opacity="0.12" stroke="currentColor" stroke-width="1.5"/>
<circle cx="160" cy="110" r="90" fill="none" stroke="currentColor" stroke-width="2"/>
<line x1="106" y1="182" x2="106" y2="38" stroke="currentColor" stroke-width="2"/>
<circle cx="106" cy="182" r="3.5" fill="currentColor" stroke="currentColor" stroke-width="1.5"/>
<circle cx="106" cy="38" r="3.5" fill="currentColor" stroke="currentColor" stroke-width="1.5"/>
<line x1="70" y1="182" x2="106" y2="182" stroke="currentColor" stroke-width="1.5" stroke-dasharray="3 3"/>
<line x1="70" y1="38" x2="106" y2="38" stroke="currentColor" stroke-width="1.5" stroke-dasharray="3 3"/>
<text x="62" y="204" font-size="13" text-anchor="end" fill="currentColor">0</text>
<text x="62" y="186" font-size="13" text-anchor="end" fill="currentColor">0.1</text>
<text x="62" y="42" font-size="13" text-anchor="end" fill="currentColor">0.9</text>
<text x="62" y="24" font-size="13" text-anchor="end" fill="currentColor">1</text>
<text x="106" y="216" font-size="13" text-anchor="middle" fill="currentColor">0.2</text>
<text x="250" y="216" font-size="13" text-anchor="middle" fill="currentColor">1</text>
<text x="160" y="232" font-size="13" text-anchor="middle" fill="currentColor">x, metres</text>
<text x="24" y="110" font-size="13" text-anchor="middle" fill="currentColor" transform="rotate(-90 24 110)">y, metres</text>
<text x="258" y="96" font-size="13" fill="currentColor">slice at</text>
<text x="258" y="114" font-size="13" fill="currentColor">x = 0.2:</text>
<text x="258" y="132" font-size="13" fill="currentColor">[0.1, 0.9]</text>
</svg>
