<svg viewBox="0 0 360 240" xmlns="http://www.w3.org/2000/svg" width="360" height="240" style="color:#24292f">
<title>The clear-night fix drawn to scale: lighthouses A and B 10 km apart on the coast, bearings of 30 and 105 degrees meeting at the ship C, and the dashed square-on line from the ship to the coast, 6.83 km</title><rect x="0" y="0" width="360" height="240" rx="8" fill="#ffffff"/>
<polygon points="24,196 244,196 284.26,45.74" fill="currentColor" fill-opacity="0.12" stroke="currentColor" stroke-width="2"/>
<line x1="244" y1="196" x2="284.26" y2="196" stroke="currentColor" stroke-width="1.5" stroke-dasharray="5,4"/>
<line x1="284.26" y1="45.74" x2="284.26" y2="196" stroke="currentColor" stroke-width="1.5" stroke-dasharray="5,4"/>
<polyline points="276.26,196 276.26,188 284.26,188" fill="none" stroke="currentColor" stroke-width="1.5"/>
<path d="M 58 196 A 34 34 0 0 0 53.44 179" fill="none" stroke="currentColor" stroke-width="1.5"/>
<path d="M 222 196 A 22 22 0 0 1 249.69 174.75" fill="none" stroke="currentColor" stroke-width="1.5"/>
<path d="M 263.48 57.74 A 24 24 0 0 0 278.05 68.92" fill="none" stroke="currentColor" stroke-width="1.5"/>
<circle cx="24" cy="196" r="3" fill="currentColor"/>
<circle cx="244" cy="196" r="3" fill="currentColor"/>
<circle cx="284.26" cy="45.74" r="3" fill="currentColor"/>
<text x="62" y="190" font-size="13" fill="currentColor">30°</text>
<text x="223" y="172" font-size="13" text-anchor="middle" fill="currentColor">105°</text>
<text x="257" y="86" font-size="13" text-anchor="middle" fill="currentColor">45°</text>
<text x="10" y="201" font-size="14" fill="currentColor">A</text>
<text x="240" y="214" font-size="14" fill="currentColor">B</text>
<text x="291" y="42" font-size="14" fill="currentColor">C</text>
<text x="134" y="214" font-size="13" text-anchor="middle" fill="currentColor">c = 10 km</text>
<text x="146" y="108" font-size="13" text-anchor="end" fill="currentColor">b = 13.66 km</text>
<text x="252" y="134" font-size="13" text-anchor="end" fill="currentColor">a = 7.07 km</text>
<text x="290" y="130" font-size="13" fill="currentColor">6.83 km</text>
</svg>
