<svg viewBox="0 0 360 240" xmlns="http://www.w3.org/2000/svg" width="360" height="240" style="color:#24292f">
<title>The s-plane with the four poles of G at i, minus i, 2i and minus 2i on the imaginary axis, each inside a small anticlockwise loop of radius 0.4, drawn to scale</title><rect x="0" y="0" width="360" height="240" rx="8" fill="#ffffff"/>
<line x1="20" y1="120" x2="340" y2="120" stroke="currentColor" stroke-width="1.5"/>
<line x1="180" y1="236" x2="180" y2="4" stroke="currentColor" stroke-width="1.5"/>
<text x="318" y="138" font-size="13" fill="currentColor">Re</text>
<text x="152" y="16" font-size="13" fill="currentColor">Im</text>
<text x="164" y="136" font-size="13" fill="currentColor">0</text>
<circle cx="180" cy="40" r="16" fill="none" stroke="currentColor" stroke-width="1.5"/>
<circle cx="180" cy="80" r="16" fill="none" stroke="currentColor" stroke-width="1.5"/>
<circle cx="180" cy="160" r="16" fill="none" stroke="currentColor" stroke-width="1.5"/>
<circle cx="180" cy="200" r="16" fill="none" stroke="currentColor" stroke-width="1.5"/>
<polygon points="196,35 192,43 200,43" fill="currentColor"/>
<polygon points="196,75 192,83 200,83" fill="currentColor"/>
<polygon points="196,155 192,163 200,163" fill="currentColor"/>
<polygon points="196,195 192,203 200,203" fill="currentColor"/>
<line x1="175" y1="35" x2="185" y2="45" stroke="currentColor" stroke-width="2"/>
<line x1="175" y1="45" x2="185" y2="35" stroke="currentColor" stroke-width="2"/>
<line x1="175" y1="75" x2="185" y2="85" stroke="currentColor" stroke-width="2"/>
<line x1="175" y1="85" x2="185" y2="75" stroke="currentColor" stroke-width="2"/>
<line x1="175" y1="155" x2="185" y2="165" stroke="currentColor" stroke-width="2"/>
<line x1="175" y1="165" x2="185" y2="155" stroke="currentColor" stroke-width="2"/>
<line x1="175" y1="195" x2="185" y2="205" stroke="currentColor" stroke-width="2"/>
<line x1="175" y1="205" x2="185" y2="195" stroke="currentColor" stroke-width="2"/>
<text x="208" y="45" font-size="13" fill="currentColor">2i: coefficient i/12</text>
<text x="208" y="85" font-size="13" fill="currentColor">i: coefficient −i/6</text>
<text x="208" y="165" font-size="13" fill="currentColor">−i: coefficient i/6</text>
<text x="208" y="205" font-size="13" fill="currentColor">−2i: coefficient −i/12</text>
<text x="24" y="60" font-size="13" fill="currentColor">the line s = iω:</text>
<text x="24" y="78" font-size="13" fill="currentColor">steady shaking</text>
</svg>
