<svg xmlns="http://www.w3.org/2000/svg" viewBox="0 0 360 240" width="360" height="240" style="color:#24292f">
<title>State diagram of the weather chain: sunny, cloudy and rainy, with the chance of each move from today to tomorrow on its arrow</title><rect x="0" y="0" width="360" height="240" rx="8" fill="#ffffff"/>
<line x1="101.9" y1="150.7" x2="154.8" y2="100.6" stroke="currentColor" stroke-width="1.5"/>
<path d="M 146.3 103.2 L 154.8 100.6 L 151.8 109" fill="none" stroke="currentColor" stroke-width="1.5"/>
<text x="119.4" y="120.7" font-size="13" text-anchor="middle" fill="currentColor">0.3</text>
<line x1="114" y1="169" x2="246" y2="169" stroke="currentColor" stroke-width="1.5"/>
<path d="M 238 165 L 246 169 L 238 173" fill="none" stroke="currentColor" stroke-width="1.5"/>
<text x="180" y="160.5" font-size="13" text-anchor="middle" fill="currentColor">0.1</text>
<line x1="163.1" y1="109.3" x2="110.2" y2="159.4" stroke="currentColor" stroke-width="1.5"/>
<path d="M 118.7 156.8 L 110.2 159.4 L 113.2 151" fill="none" stroke="currentColor" stroke-width="1.5"/>
<text x="145.6" y="148.3" font-size="13" text-anchor="middle" fill="currentColor">0.3</text>
<line x1="205.2" y1="100.6" x2="258.1" y2="150.7" stroke="currentColor" stroke-width="1.5"/>
<path d="M 255 142.3 L 258.1 150.7 L 249.5 148.1" fill="none" stroke="currentColor" stroke-width="1.5"/>
<text x="240.6" y="120.7" font-size="13" text-anchor="middle" fill="currentColor">0.3</text>
<line x1="246" y1="181" x2="114" y2="181" stroke="currentColor" stroke-width="1.5"/>
<path d="M 122 185 L 114 181 L 122 177" fill="none" stroke="currentColor" stroke-width="1.5"/>
<text x="180" y="198.5" font-size="13" text-anchor="middle" fill="currentColor">0.2</text>
<line x1="249.8" y1="159.4" x2="196.9" y2="109.3" stroke="currentColor" stroke-width="1.5"/>
<path d="M 200 117.7 L 196.9 109.3 L 205.5 111.9" fill="none" stroke="currentColor" stroke-width="1.5"/>
<text x="214.4" y="148.3" font-size="13" text-anchor="middle" fill="currentColor">0.4</text>
<path d="M 65.1 158.3 A 23.2 23.2 0 1 0 65.1 191.7" fill="none" stroke="currentColor" stroke-width="1.5"/>
<path d="M 56.5 194.4 L 65.1 191.7 L 62.1 200.1" fill="none" stroke="currentColor" stroke-width="1.5"/>
<text x="49" y="215.2" font-size="13" text-anchor="middle" fill="currentColor">0.6</text>
<path d="M 196.7 65.1 A 23.2 23.2 0 1 0 163.3 65.1" fill="none" stroke="currentColor" stroke-width="1.5"/>
<path d="M 160.6 56.5 L 163.3 65.1 L 154.9 62.1" fill="none" stroke="currentColor" stroke-width="1.5"/>
<text x="219.2" y="53.5" font-size="13" text-anchor="middle" fill="currentColor">0.4</text>
<path d="M 294.9 191.7 A 23.2 23.2 0 1 0 294.9 158.3" fill="none" stroke="currentColor" stroke-width="1.5"/>
<path d="M 303.5 155.6 L 294.9 158.3 L 297.9 149.9" fill="none" stroke="currentColor" stroke-width="1.5"/>
<text x="311" y="215.2" font-size="13" text-anchor="middle" fill="currentColor">0.4</text>
<circle cx="85" cy="175" r="26" fill="none" stroke="currentColor" stroke-width="2"/>
<text x="85" y="179.5" font-size="13" text-anchor="middle" fill="currentColor">sunny</text>
<circle cx="180" cy="85" r="26" fill="none" stroke="currentColor" stroke-width="2"/>
<text x="180" y="89.5" font-size="13" text-anchor="middle" fill="currentColor">cloudy</text>
<circle cx="275" cy="175" r="26" fill="none" stroke="currentColor" stroke-width="2"/>
<text x="275" y="179.5" font-size="13" text-anchor="middle" fill="currentColor">rainy</text>
</svg>
